<?xml version="1.0" encoding="UTF-8" standalone="no"?>
<svg
   xmlns:dc="http://purl.org/dc/elements/1.1/"
   xmlns:cc="http://creativecommons.org/ns#"
   xmlns:rdf="http://www.w3.org/1999/02/22-rdf-syntax-ns#"
   xmlns:svg="http://www.w3.org/2000/svg"
   xmlns="http://www.w3.org/2000/svg"
   id="svg859"
   version="1.1"
   viewBox="0 0 13.229166 13.229167"
   height="50"
   width="50">
  <defs
     id="defs853" />
  <metadata
     id="metadata856">
    <rdf:RDF>
      <cc:Work
         rdf:about="">
        <dc:format>image/svg+xml</dc:format>
        <dc:type
           rdf:resource="http://purl.org/dc/dcmitype/StillImage" />
        <dc:title></dc:title>
      </cc:Work>
    </rdf:RDF>
  </metadata>
  <g
     transform="translate(0,-283.77082)"
     id="layer1">
    <g
       id="g12"
       style="image-rendering:optimizeQuality;shape-rendering:geometricPrecision;text-rendering:geometricPrecision"
       transform="matrix(0.03412279,0,0,0.03412279,0.88195461,284.65277)">
      <path
         id="path6"
         d="m 38,38 c 51,-51 134,-51 185,0 50,51 50,134 0,185 C 172,273 89,273 38,223 -13,172 -13,89 38,38 Z m 21,21 c -39,40 -39,103 0,143 39,39 103,39 143,0 C 241,162 241,98 202,59 162,20 99,20 59,59 Z"
         class="fil0" />
      <path
         id="path8"
         d="m 254,215 74,75 c 11,10 11,28 0,38 -10,11 -28,11 -38,0 l -75,-74 c 8,-5 15,-11 21,-18 7,-6 13,-13 18,-21 z"
         class="fil1" />
      <path
         id="path10"
         d="M 44,121 C 47,102 56,84 70,70 84,56 102,47 121,44 l 3,20 C 108,66 94,73 84,84 73,94 66,108 64,124 Z"
         class="fil0" />
    </g>
  </g>
</svg>
