<?xml version="1.0" encoding="UTF-8" standalone="no"?>
<svg
   xmlns:dc="http://purl.org/dc/elements/1.1/"
   xmlns:cc="http://creativecommons.org/ns#"
   xmlns:rdf="http://www.w3.org/1999/02/22-rdf-syntax-ns#"
   xmlns:svg="http://www.w3.org/2000/svg"
   xmlns="http://www.w3.org/2000/svg"
   id="svg845"
   version="1.1"
   viewBox="0 0 13.229166 13.229167"
   height="50"
   width="50">
  <defs
     id="defs839" />
  <metadata
     id="metadata842">
    <rdf:RDF>
      <cc:Work
         rdf:about="">
        <dc:format>image/svg+xml</dc:format>
        <dc:type
           rdf:resource="http://purl.org/dc/dcmitype/StillImage" />
        <dc:title></dc:title>
      </cc:Work>
    </rdf:RDF>
  </metadata>
  <g
     transform="translate(0,-283.77082)"
     id="layer1">
    <g
       id="g6"
       transform="matrix(0.11700142,0,0,0.11700142,0.75772601,284.47724)">
      <path
         id="path2"
         d="m 20.574,64.951 h 11.054 c -0.673,-1.912 -1.123,-3.93 -1.318,-6.023 h -8.533 c -7.975,0 -14.44,-6.473 -14.44,-14.456 0,-7.983 6.466,-14.456 14.44,-14.456 h 21.862 c 7.977,0 14.441,6.473 14.441,14.456 0,6.489 -4.268,11.978 -10.146,13.806 0.824,1.5 2.18,3.689 3.862,5.385 C 59.568,60.76 65.1,53.266 65.1,44.472 65.1,33.162 55.942,23.993 44.642,23.993 H 20.574 c -11.299,0 -20.458,9.17 -20.458,20.479 0,11.313 9.159,20.479 20.458,20.479 z"
         style="clip-rule:evenodd;fill-rule:evenodd" />
      <path
         id="path4"
         d="m 35.015,56.52 c 0,11.311 9.16,20.48 20.458,20.48 H 79.541 C 90.841,77 100,67.83 100,56.52 100,45.208 90.841,36.04 79.542,36.04 H 68.471 c 0.677,1.913 1.13,3.931 1.33,6.023 h 8.738 c 7.974,0 14.439,6.474 14.439,14.457 0,7.984 -6.466,14.457 -14.439,14.457 H 56.677 c -7.976,0 -14.442,-6.473 -14.442,-14.457 0,-6.615 4.437,-12.19 10.495,-13.908 -0.447,-2.259 -1.676,-4.238 -3.4,-5.632 -8.296,2.612 -14.315,10.372 -14.315,19.54 z"
         style="clip-rule:evenodd;fill-rule:evenodd" />
    </g>
  </g>
</svg>
